<?xml version="1.0" encoding="utf-8"?>
<!-- Generator: Adobe Illustrator 19.0.0, SVG Export Plug-In . SVG Version: 6.00 Build 0)  -->
<svg version="1.1" id="图层_1" xmlns="http://www.w3.org/2000/svg" xmlns:xlink="http://www.w3.org/1999/xlink" x="0px" y="0px"
	 viewBox="0 0 904.2 175.5" style="enable-background:new 0 0 904.2 175.5;" xml:space="preserve">
<style type="text/css">
	.st0{fill:#2F3537;}
</style>
<g>
	<g>
		<polygon class="st0" points="297.8,51.2 302.7,72.7 311.3,72.7 306.3,51.2 		"/>
		<path class="st0" d="M292.7,80h13.9c0,0,6.5,0.6,6.5,9.4v50c0,0,0,2.9-0.4,4.7c0,0,4.5,15.1,20.3,15.1h65.8v6.8h-67.3
			c0,0-13,0.6-21.4-10.8c0,0-1.6,5.8-6.5,10.7h-10.3c0,0,11-9.2,11-27.1V91.3c0,0,0.2-4.4-3.6-4.4h-8.1L292.7,80z"/>
		<path class="st0" d="M332.7,51.3h8.8l-2.8,7.6h44.6c0,0,6.8,0.7,4.6,9l-6.4,13h7.2c0,0,3.6,0.6,5.2,3.5c0,0,1.2,2.1,1.2,4.8V107
			c0,0-0.4,7.6-8,7.6h-26.3l-1.8,4.9h7.4V139c0,0,0.4,4.4,4.5,4.4c4.1,0,28.3,0,28.3,0v6.9h-34c0,0-7.3-0.3-7.3-9v-18.7
			c0,0-7.2,16.4-22.2,27.6h-12.1c0,0,21.8-15.1,28.5-35.6h-21.2c0,0-7.5,0.3-7.5-9.7V88.7c0,0,0.6-7.9,8.4-7.9h31.4v21.9
			c0,0-0.3,4-0.7,5.2h-8.5c0,0,0.7-3,0.7-5.9c0-2.9,0-14,0-14h-19.1c0,0-3.7,0.6-3.7,4.1c0,3.6,0,10.9,0,10.9s-0.4,5,4.7,5
			c5.1,0,45.5,0,45.5,0s4.7,0.5,4.7-4.9c0-5.4,0-11,0-11s-0.4-4.2-5.3-4.2h-11.4v-6.9h1.8c0,0,5.6-9.6,6.8-13.3c0,0,0.5-1.8-1.1-1.8
			h-41.6l-5,10.6h-8.9C322.1,76.4,329.8,62.4,332.7,51.3z"/>
		<polygon class="st0" points="378.9,121.2 387.1,121.2 392.3,135.8 384.1,135.8 		"/>
	</g>
	<g>
		<path class="st0" d="M438.1,51.1h9.3c0,0,11.5,22.4,27.2,43.7h-10.4c0,0-16-22.1-21.3-33.7c0,0-9.6,18.6-21.9,33.9H411
			C411,95,432,65.7,438.1,51.1z"/>
		<path class="st0" d="M452.4,99.7h-27c0,0-7.5,0.2-7.5,8.2s0,50.1,0,50.1s0.1,7.7,8.1,7.7c8,0,48.9,0,48.9,0V159h-44.3
			c0,0-4.4-0.1-4.4-5.4v-42.8c0,0,0.5-4.2,4.6-4.2c4.1,0,21.5,0,21.5,0L452.4,99.7z"/>
		<path class="st0" d="M459.7,99.7c0,0,8.5-1,8.5,10v22.1c0,0-0.4,7.7-6.8,7.7c-6.4,0-18.6,0-18.6,0v-6.8h12.6c0,0,4.3-0.3,4.3-4.4
			V99.7z"/>
		<rect x="483.7" y="60.4" class="st0" width="8.4" height="89"/>
		<path class="st0" d="M507.1,51.1h8.4v106.6c0,0,0.1,8.3-7.9,8.3h-15.3v-6.9h11.2c0,0,3.7-0.5,3.7-4.4L507.1,51.1z"/>
	</g>
	<g>
		<rect x="575.8" y="57.4" class="st0" width="91.5" height="6.6"/>
		<rect x="568.1" y="94.3" class="st0" width="106" height="6.6"/>
		<path class="st0" d="M593.8,108.1h9.2l-19.3,47.2c0,0-0.7,3.1,2.6,3.1c3.3,0,68.2,0,68.2,0s3.3-0.4,2.2-3.2l-15.5-36.3h9.3
			l16.1,38.6c0,0,0.7,2.6-1,5.1c-1.7,2.6-4.4,2.6-4.4,2.6h-83.9c0,0-3-0.9-3.6-3c-0.6-2.2-0.1-3.9-0.1-3.9L593.8,108.1z"/>
	</g>
	<g>
		<path class="st0" d="M771,68.2v-6.9h-30.8V51.2h-8.5v10.1h-39.3c0,0-2.9,0.1-4.7,2.3c-1.7,2.3-2.3,4.7-2.3,6c0,1.3,0,10.2,0,10.2
			h8.4v-7c0,0,0.1-4.6,4.7-4.6C703.1,68.2,771,68.2,771,68.2z"/>
		<path class="st0" d="M778.2,61.3c0,0,8.4,0.3,8.4,7.5v11h-8.4L778.2,61.3z"/>
		<path class="st0" d="M705.6,74.2h8.7c0,0-1.1,3-3.7,8.6h62.9c0,0,3.3,0.4,3.8,3.1c0.5,2.7-0.7,4.3-1.7,5.4
			c0,0-10.2,11.8-26.9,20.4c0,0,22,7.8,40.6,9.1v8.4c0,0-28.1-2.8-51.7-12.9l-0.2-9.1c0,0,16.8-5.8,25.8-15.9c0,0,0.7-0.6,0.4-1.3
			c-0.3-0.7-1-0.7-2.1-0.7h-51.2c0,0,11.2,11,27.3,18.1l0.1,9c0,0-27.7,9.4-54.8,11.6v-8.5c0,0,25.2-1.8,43.7-8.1
			c0,0-11.8-6.1-22.6-16.3l-6.2,9.2h-10.1C687.7,104.3,698.8,89.5,705.6,74.2z"/>
		<path class="st0" d="M736.4,136.5h-29.5c0,0-4.6-0.2-4.6,3.8s0,14.7,0,14.7s0.5,3.8,3.9,3.8h30.3v6.9h-35.3c0,0-7.5-0.2-7.5-8.5
			v-20.5c0,0,1-7.3,7.4-7.3c6.4,0,35.4,0.1,35.4,0.1"/>
		<path class="st0" d="M736.1,136.5h29c0,0,4.6-0.2,4.6,3.8s0,14.7,0,14.7s-0.5,3.8-3.9,3.8h-29.7v6.9h34.7c0,0,7.5-0.2,7.5-8.5
			v-20.5c0,0-1-7.3-7.4-7.3c-6.4,0-34.8,0.1-34.8,0.1"/>
	</g>
	<g>
		<path class="st0" d="M819.2,53H808c0,0-7.8-0.3-7.8,8.4v79.1c0,0-0.6,13.1-6.4,25.6h9c0,0,5.8-9.3,5.8-25.8V63.4V62
			c0,0-0.1-2,2.3-2c2.4,0,17,0,17,0s1.7,0.1,1.7,2.2s0,93.9,0,93.9s-0.2,3.2-2.7,3.2h-7.4v6.8h12.2c0,0,6.3-0.2,6.3-7.1
			c0-6.9,0-97,0-97s0.5-9.1-7-9.1C823.5,53,819.2,53,819.2,53z"/>
		<rect x="808.4" y="88.1" class="st0" width="21.3" height="6.9"/>
		<rect x="808.3" y="122.2" class="st0" width="21.8" height="6.9"/>
		<path class="st0" d="M882.2,53.3h-28.9c0,0-7,0.9-7,7.6s0,105.3,0,105.3h8.5v-58.8v-0.2h33.4c0,0,0.9,0,1.2,1.1
			c0,0,0.3,0.4-0.1,1.6c0,0-5,12.8-11.9,25.3c0,0-5-7.8-10.1-19.3h-8.9c0,0,9.2,19.8,14.5,27.4c0,0-5.2,9.7-15.3,22.8h9.7
			c0,0,7.3-10.2,10.5-15.4c0,0,6.5,9.4,12.1,15.3h10c0,0-13.2-15-17.6-22.8c0,0,11.8-20.7,16-32.5c0,0,1.8-2.8,1.1-6.7
			c-0.7-3.8-5.3-3.7-5.3-3.7h-39.3V62.8c0,0,0.3-2.5,2.6-2.5c2.3,0,24.8,0,24.8,0L882.2,53.3z"/>
		<path class="st0" d="M889.3,53.6c0,0,8.5-1.2,8.5,8.6v25.6c0,0-0.7,6.7-6.5,6.7h-18.9v-7h14.4c0,0,2.5,0.1,2.5-2.9
			C889.3,81.6,889.3,53.6,889.3,53.6z"/>
	</g>
	<circle class="st0" cx="542.8" cy="108" r="9.5"/>
	<g>
		<path class="st0" d="M109.2,2.1c40.9,0,63.5,33.7,63.5,59.1h-17c0,0-4.9-41.8-46.3-41.8L109.2,2.1z"/>
		<rect x="155.7" y="61" class="st0" width="17" height="111"/>
		<path class="st0" d="M109.4,2.1c-33.6,0-54.8,22.8-61.2,45c-0.1,0.2,0,0.3,0.1,0.4c3.9,5.2,14.6,13.9,14.6,13.9
			s5.2-42.1,46.5-42.1V2.1z"/>
		<path class="st0" d="M185.1,46.2c33.9,0,63.3,27.3,63.3,62.7h-17c-0.1-29-28.7-46.9-46.3-45.4V46.2z"/>
		<path class="st0" d="M185.1,171.5c33.9,0,63.3-27.3,63.3-62.7h-17c-0.1,29-28.7,46.9-46.3,45.4V171.5z"/>
		<path class="st0" d="M2.8,108.7c0,40.9,33.7,63.3,59.1,63.3v-17c0,0-41.8-4.9-41.8-46.3H2.8z"/>
		<rect x="61.7" y="155" class="st0" width="111" height="17"/>
		<path class="st0" d="M2.8,108.8c0-33.6,22.8-54.8,45-61.2c0.3-0.1,0.2-0.1,0.5,0c0.2,0.1,14.6,13.9,14.6,13.9S20,67.4,20,108.8
			H2.8z"/>
		<rect x="108.5" y="2.1" class="st0" width="2.6" height="17.3"/>
		<rect x="60.5" y="155" class="st0" width="2.6" height="16.9"/>
		<rect x="155.7" y="60" class="st0" width="17" height="2.6"/>
		<rect x="231.4" y="107.4" class="st0" width="17" height="2.6"/>
		<rect x="2.9" y="107.5" class="st0" width="17" height="2.6"/>
		
			<rect x="53.8" y="44.3" transform="matrix(0.6943 -0.7197 0.7197 0.6943 -21.9976 56.133)" class="st0" width="2.6" height="19.2"/>
	</g>
</g>
</svg>
